<?xml version="1.0" encoding="UTF-8" standalone="no"?>
<svg
   xmlns:dc="http://purl.org/dc/elements/1.1/"
   xmlns:cc="http://creativecommons.org/ns#"
   xmlns:rdf="http://www.w3.org/1999/02/22-rdf-syntax-ns#"
   xmlns:svg="http://www.w3.org/2000/svg"
   xmlns="http://www.w3.org/2000/svg"
   version="1.1"
   id="svg2"
   viewBox="0 0 512.00002 66.900727"
   height="66.900726"
   width="512">
  <defs
     id="defs4" />
  <metadata
     id="metadata7">
    <rdf:RDF>
      <cc:Work
         rdf:about="">
        <dc:format>image/svg+xml</dc:format>
        <dc:type
           rdf:resource="http://purl.org/dc/dcmitype/StillImage" />
        <dc:title></dc:title>
      </cc:Work>
    </rdf:RDF>
  </metadata>
  <g
     transform="translate(-253.84278,-78.957001)"
     id="layer1">
    <path
       id="path4453"
       d="m 259.93377,99.476506 c 3.31092,13.563934 3.02658,27.631714 4.94391,41.397674 2.1197,4.58888 -7.84239,3.86124 -4.93113,-0.34505 3.94174,-17.30231 1.65201,-35.17797 3.63887,-52.685582 0.51036,-3.663199 4.89842,-7.138966 8.33243,-4.575998 4.12429,2.674634 5.8926,7.528359 8.27678,11.601532 6.29262,13.098938 7.40852,27.892018 12.73568,41.331218 -1.96995,1.8142 -2.66661,-2.90682 -1.17568,-4.03818 2.91831,-10.15623 1.05944,-20.86902 2.73685,-31.20371 0.62718,-3.574988 1.27699,-7.390359 3.33079,-10.432393 3.31732,-2.977448 8.41822,-0.24324 8.89135,3.861006 3.8733,9.792077 3.92183,20.475107 5.93603,30.692917 -0.21879,3.25058 2.3295,6.47795 0.85743,9.64493 -2.17413,2.97077 -6.57554,0.12678 -6.14288,-3.12821 -0.22488,-8.2459 -1.15952,-16.49589 -2.83063,-24.57932 -0.6934,-2.56361 -0.77835,-5.20673 -1.89664,-7.838554 -0.39462,-1.342277 -1.8398,-3.816363 -2.25516,-0.763703 -1.61538,2.614997 -1.23604,15.687967 -1.73141,23.734237 -0.23312,6.42009 -0.8438,12.95501 -3.24107,18.97444 -2.55599,3.4894 -8.35554,1.0665 -8.31244,-3.07565 -4.21672,-14.05305 -4.93923,-29.34563 -12.46972,-42.258327 -0.93624,-1.966352 -4.1956,-7.836873 -5.94207,-4.042486 -1.39901,12.772723 -0.49679,25.660553 -1.63605,38.453923 -0.26446,3.7303 -0.58736,7.45659 -0.93484,11.18021 1.56115,3.7779 -5.0059,6.33702 -6.69109,2.76808 -1.50953,-4.27229 -0.1066,-8.85995 -0.86029,-13.24596 -0.34935,-8.4273 -0.98395,-16.90937 -3.11986,-25.09836 -1.83584,-2.16333 -2.4657,-6.283789 0.14309,-8.091899 1.58664,-0.797988 3.89551,-0.05751 4.34604,1.763215 z"
       style="opacity:1;fill:#ffffff;fill-opacity:1;stroke:none;stroke-width:4;stroke-linecap:round;stroke-linejoin:miter;stroke-miterlimit:4;stroke-dasharray:none;stroke-opacity:1" />
    <path
       id="path4455"
       d="m 329.69823,114.83565 c -1.37764,5.13429 -2.17522,10.40455 -3.00442,15.64644 -0.20114,2.72846 -0.20729,5.95052 -2.51599,7.84923 -2.10413,1.74844 -5.88967,0.41539 -6.15857,-2.39672 -0.46642,-2.77198 0.008,-5.59019 0.21341,-8.36561 0.55399,-4.95818 1.11681,-9.92637 2.01952,-14.83335 0.58014,-2.71723 2.47032,-5.43346 5.38638,-5.88031 3.1159,-0.58668 6.14253,1.07274 8.2177,3.29155 4.81356,4.63469 7.44051,10.88782 10.99513,16.42697 0.75424,1.41931 2.36242,2.14339 3.00563,3.60516 0.93474,2.14394 -1.30651,4.6242 -3.52594,4.01654 -1.48594,-0.4487 -2.43598,-1.82432 -3.41938,-2.94446 -2.61293,-3.46827 -4.12798,-7.6027 -6.54661,-11.19786 -1.74124,-2.66618 -3.7434,-5.37002 -6.60925,-6.88578 -1.55961,-0.98765 -1.76586,1.64738 -2.16916,2.61601 -0.78364,4.15546 -1.317,8.37073 -1.50682,12.59803 -0.0894,1.70714 0.0501,3.43393 0.11585,5.12375 -0.97814,-0.88524 -2.474,-1.46038 -3.74561,-0.66278 -0.73229,0.30004 -0.70229,1.21595 -0.36326,0.057 0.83502,-3.05512 1.24497,-6.2069 1.88257,-9.30622 0.64855,-3.5271 1.0536,-7.09886 1.51827,-10.6474 0.75109,-2.28612 4.25274,-2.89212 5.62817,-0.85225 0.57448,0.77431 0.77776,1.80172 0.58065,2.74119 z"
       style="opacity:1;fill:#ffffff;fill-opacity:1;stroke:none;stroke-width:4;stroke-linecap:round;stroke-linejoin:miter;stroke-miterlimit:4;stroke-dasharray:none;stroke-opacity:1" />
    <path
       d="m 320.90941,123.03217 c 5.20409,-0.53728 10.42078,-0.9222 15.63255,-1.37189 2.74413,-0.15351 6.90942,-0.61067 9.65274,-0.77806 4.06829,-0.17092 4.31079,5.58192 0.24063,5.75361 -4.27041,0.28953 -7.58011,0.46906 -9.45156,0.54901 -4.89094,0.36295 -9.8603,0.70889 -14.55783,2.22031 -4.50628,1.07356 -6.02449,-5.29937 -1.51811,-6.37298 z"
       id="path4457"
       style="opacity:1;fill:#ffffff;fill-opacity:1;stroke:none;stroke-width:4;stroke-linecap:round;stroke-linejoin:miter;stroke-miterlimit:4;stroke-dasharray:none;stroke-opacity:1" />
    <path
       id="path4459"
       d="m 358.39633,120.63827 c -0.13049,4.91741 0.99897,9.76361 2.43201,14.43564 0.40839,3.01884 -3.69133,4.74734 -5.88244,2.89173 -2.39306,-2.19608 -2.48495,-5.75287 -2.9887,-8.75319 -0.5666,-5.37375 -0.97405,-11.42718 2.45176,-16.00555 2.70414,-3.68255 7.09002,-6.46882 11.7344,-6.49601 2.69161,0.0859 5.15383,2.54414 4.60396,5.30855 -0.58204,3.99634 -3.91085,6.73652 -6.08989,9.89927 -0.82625,1.61158 -3.56722,3.42285 -3.38673,4.95614 4.04903,0.29538 8.13666,-0.354 12.10758,-1.15291 3.12085,-0.581 6.1483,-1.67027 9.24485,-2.26348 3.0967,0.29541 3.55538,5.34933 0.30056,5.85061 -3.9004,1.45265 -8.08558,1.89339 -12.14316,2.72531 -4.1913,0.61205 -8.52359,1.39366 -12.7346,0.64558 -3.21662,-0.81391 -4.96087,-4.71389 -3.01362,-7.51788 1.96978,-3.90313 5.80002,-6.51437 7.77087,-10.39133 -0.19654,-1.40966 2.97759,-3.21995 1.75184,-1.06654 -1.52835,1.32345 -3.97345,0.91339 -5.25176,2.67775 -2.73917,3.57522 -1.88587,8.32577 -1.42666,12.46434 0.73468,1.89161 1.6821,4.27743 -0.88285,5.03829 -1.99549,2.24568 -3.81798,-0.26567 -3.48522,-2.49325 -0.69972,-3.75649 -1.26592,-7.54467 -1.65173,-11.34802 0.10408,-3.24359 5.44629,-4.01311 6.30927,-0.78524 0.16713,0.43889 0.24556,0.91091 0.22953,1.38019 z"
       style="opacity:1;fill:#ffffff;fill-opacity:1;stroke:none;stroke-width:4;stroke-linecap:round;stroke-linejoin:miter;stroke-miterlimit:4;stroke-dasharray:none;stroke-opacity:1" />
    <path
       id="path4561"
       d="m 394.98956,117.86736 c -3.04873,-0.40286 -6.55522,1.33982 -7.36018,4.45712 -0.7536,3.116 2.03324,6.13713 5.05459,6.44792 2.99431,0.68953 6.3417,0.95221 9.13565,-0.56834 1.36523,-1.28085 3.54471,-2.29681 5.32144,-1.22995 2.1634,1.31175 1.62671,4.90936 -0.57339,5.9024 -4.60941,2.8511 -10.39983,2.83274 -15.50288,1.50533 -3.40706,-0.85414 -6.73891,-2.79685 -8.39692,-6.00429 -2.0557,-3.84918 -1.3888,-8.82525 1.36626,-12.15977 1.80792,-2.32691 4.52659,-3.93548 7.46041,-4.28665 1.9716,-0.60462 4.44343,-1.07814 6.13752,0.43487 1.98034,1.89651 0.1704,6.00196 -2.6425,5.50136 z"
       style="opacity:1;fill:#ffffff;fill-opacity:1;stroke:none;stroke-width:4;stroke-linecap:round;stroke-linejoin:miter;stroke-miterlimit:4;stroke-dasharray:none;stroke-opacity:1" />
    <path
       id="path4563"
       d="m 418.41937,119.70032 c -3.44925,-1.19096 -7.87286,1.49509 -7.59707,5.34343 0.49264,2.93484 3.95675,3.91298 6.53912,3.82844 2.3524,-0.11938 5.38428,-1.16848 5.60073,-3.91913 0.26616,-2.98784 -1.7676,-5.5592 -4.03261,-7.25356 -1.99274,-1.66438 -0.67296,-5.19962 1.85509,-5.37 2.57389,-0.0504 4.05264,2.47126 5.51916,4.20918 2.83964,3.8712 4.07053,9.65042 0.99299,13.74817 -4.35645,5.53188 -13.31701,6.07415 -18.76352,1.8686 -3.47217,-2.52753 -4.64023,-7.41406 -2.95184,-11.31626 1.47039,-4.21559 5.5479,-7.09266 9.92527,-7.52886 2.19664,-0.13519 5.32271,-0.67931 6.46352,1.77359 1.23808,2.30422 -1.01737,5.18964 -3.55084,4.6164 z"
       style="opacity:1;fill:#ffffff;fill-opacity:1;stroke:none;stroke-width:4;stroke-linecap:round;stroke-linejoin:miter;stroke-miterlimit:4;stroke-dasharray:none;stroke-opacity:1" />
    <path
       id="path4565"
       d="m 475.56547,86.82702 c -5.47277,-2.689061 -12.62761,-3.062749 -17.7447,0.605915 -2.3734,1.590847 -3.73974,5.097721 -1.61904,7.439762 2.62114,3.407163 6.52844,5.489623 10.0106,7.888983 7.90145,5.10969 16.40681,9.96678 22.06025,17.70266 3.11079,4.62081 3.21025,11.30561 -0.69167,15.51724 -5.18154,5.90687 -13.57958,8.43551 -21.26554,7.48065 -7.70831,-1.03448 -15.33766,-4.9267 -19.82936,-11.4094 -1.40877,-2.23635 -2.5467,-5.66853 -0.56884,-7.89164 2.91456,-2.02542 6.12163,1.43186 5.58965,4.40802 1.51876,3.6808 5.2164,5.91333 8.67313,7.5537 6.87647,3.16052 15.64814,2.7844 21.52532,-2.29475 2.60408,-2.12272 4.20843,-5.84318 2.72637,-9.07859 -2.02579,-5.34655 -7.0899,-8.54735 -11.327,-12.0138 -7.24845,-5.24081 -16.24534,-8.16444 -22.23597,-15.048104 -2.51865,-3.259161 -2.47735,-8.010047 -0.0842,-11.327588 3.85503,-5.994815 11.56972,-7.942872 18.30994,-7.279485 3.41831,0.284352 6.99644,0.758137 10.04791,2.364539 2.55384,2.356652 -0.34139,7.056742 -3.57635,5.381888 z"
       style="opacity:1;fill:#ffffff;fill-opacity:1;stroke:none;stroke-width:4;stroke-linecap:round;stroke-linejoin:miter;stroke-miterlimit:4;stroke-dasharray:none;stroke-opacity:1" />
    <path
       id="path4573"
       d="m 553.90496,125.822 c -0.66757,2.92267 1.53639,8.06623 -3.03658,8.58879 -4.3144,0.31183 -4.01508,-4.64825 -4.34745,-7.57475 -0.9347,-3.46275 -0.16496,-8.55343 4.06856,-9.21991 4.44885,-0.5964 7.91836,2.99373 10.76566,5.90163 1.3727,1.69996 5.65456,6.01456 5.7919,1.3996 -0.37727,-3.37575 -2.4302,-6.51091 -2.17566,-9.9327 0.91396,-3.68965 6.19751,-2.90973 6.34303,0.81674 0.5341,3.3778 1.40284,6.69112 1.91407,10.07332 0.53733,3.51435 -0.47133,8.36101 -4.52078,9.18957 -4.66768,0.61481 -7.79438,-3.52449 -10.72258,-6.46428 -1.39371,-1.02939 -4.10705,-4.86519 -5.34832,-2.29254 0.0866,2.48334 2.83492,5.69192 0.0668,7.6638 -2.67618,1.87678 -6.16432,-0.9878 -5.41959,-4.0086 0.17965,-2.55002 -0.65573,-6.10233 2.23825,-7.45483 2.03771,-0.86454 4.83526,1.02288 4.38147,3.31416 z"
       style="opacity:1;fill:#ffffff;fill-opacity:1;stroke:none;stroke-width:4;stroke-linecap:round;stroke-linejoin:miter;stroke-miterlimit:4;stroke-dasharray:none;stroke-opacity:1" />
    <path
       d="m 663.95674,118.48388 c 0.98278,3.18392 1.54054,6.46265 2.09614,9.73974 0.21873,1.59977 0.11485,0.84111 0.31333,2.27454 0.39065,4.55957 -6.05737,5.11212 -6.44789,0.55277 l 0,0 c -0.0321,-1.27053 -0.002,-0.60198 -0.0984,-2.00604 -0.24525,-2.72462 -0.65233,-5.50613 -1.88449,-7.98015 -1.82472,-4.25801 4.19678,-6.83862 6.02159,-2.58086 z"
       id="path4585"
       style="opacity:1;fill:#ffffff;fill-opacity:1;stroke:none;stroke-width:4;stroke-linecap:round;stroke-linejoin:miter;stroke-miterlimit:4;stroke-dasharray:none;stroke-opacity:1" />
    <path
       id="path4599"
       d="m 708.31563,119.48316 c 0.95908,5.62434 0.57012,11.45227 -0.9755,16.93662 -2.14147,0.59302 -4.79736,0.12796 -6.17431,-1.73967 -0.53855,-1.24766 0.0911,-2.62231 0.26453,-3.89016 0.55366,-2.24563 1.13391,-4.49411 1.37613,-6.79766 0.82591,-3.96351 1.86297,-8.18642 4.84136,-11.12788 2.28654,-2.07767 6.03663,-1.4736 8.10843,0.61637 3.12432,3.01304 4.10142,7.38762 5.84871,11.20914 0.7024,1.5851 1.64252,3.05835 2.7714,4.37073 1.37736,2.21252 -1.15871,5.52239 -3.64996,4.59762 -2.24509,-0.90828 -3.28684,-3.31051 -4.17186,-5.39581 -1.40459,-3.43968 -2.39304,-7.16553 -4.7672,-10.10184 -1.18677,-0.22136 -1.59476,1.87066 -2.05434,2.75513 -0.53137,1.92416 -0.96887,3.88101 -1.28756,5.85091 -0.3234,2.23045 -0.51337,4.47858 -0.8585,6.70641 -1.96343,1.00074 -4.09206,-0.0879 -6.08296,-0.39166 1.72003,-4.08363 1.49961,-8.7186 0.33515,-12.91751 -0.22798,-1.9301 1.82802,-3.31941 3.59199,-3.22844 1.45301,0.002 2.65213,1.14074 2.88404,2.5477 z"
       style="opacity:1;fill:#ffffff;fill-opacity:1;stroke:none;stroke-width:4;stroke-linecap:round;stroke-linejoin:miter;stroke-miterlimit:4;stroke-dasharray:none;stroke-opacity:1" />
    <path
       d="m 705.63708,124.93757 c 4.05009,-0.61283 8.0958,-1.24169 12.15978,-1.76295 2.5951,-0.25827 1.33064,-0.13956 3.79361,-0.36048 4.3129,-0.28246 4.71262,5.81684 0.3995,6.09941 l 0,0 c -2.30508,0.0901 -1.12439,0.0251 -3.54143,0.19542 -3.73029,0.33667 -7.4723,0.84267 -11.0074,2.14281 -4.46485,1.27584 -6.26901,-5.03886 -1.80406,-6.31456 z"
       id="path4601"
       style="opacity:1;fill:#ffffff;fill-opacity:1;stroke:none;stroke-width:4;stroke-linecap:round;stroke-linejoin:miter;stroke-miterlimit:4;stroke-dasharray:none;stroke-opacity:1" />
    <path
       d="m 764.66064,118.73205 c 0.0478,2.36595 0.50325,4.70322 0.9789,7.01474 0.0504,0.23435 0.10307,0.46805 0.1547,0.70218 0.67233,4.60877 -5.84551,5.55968 -6.5178,0.95088 l 0,0 c -0.0101,-0.23387 -0.0316,-0.46798 -0.0486,-0.70171 -0.22881,-2.52917 -0.64864,-5.03596 -1.1191,-7.5298 -0.30861,-4.6335 6.24413,-5.06981 6.55244,-0.43627 z"
       id="path4605"
       style="opacity:1;fill:#ffffff;fill-opacity:1;stroke:none;stroke-width:4;stroke-linecap:round;stroke-linejoin:miter;stroke-miterlimit:4;stroke-dasharray:none;stroke-opacity:1" />
    <path
       id="path4667"
       d="m 733.48194,123.65978 c 0.51863,3.17258 1.30902,6.29678 2.28087,9.35952 -1.17555,-1.83814 -2.87978,-0.22411 -4.28526,0.34682 -2.3322,1.13673 -1.22985,-2.51123 -1.60445,-3.74701 -0.27806,-6.34565 0.53612,-13.0582 4.21944,-18.41313 1.3391,-1.96775 2.67311,-4.13838 4.77779,-5.36238 2.13533,-1.15779 5.17574,-0.67116 6.40654,1.56564 1.42193,2.20001 2.02028,4.8933 2.00661,7.48783 -0.3211,4.22434 -3.23002,7.57223 -5.8721,10.63264 -0.29522,0.41189 -0.74109,1.89816 -0.3218,0.68412 1.81202,0.67003 3.61262,1.40675 5.5561,1.58486 5.07348,0.85493 10.23271,0.34608 15.34009,0.40295 2.57446,0.43119 3.42677,4.46909 1.02975,5.72064 -1.99924,1.02078 -4.28342,0.26254 -6.41601,0.45187 -6.18502,-0.11535 -12.58782,-0.22669 -18.39013,-2.62205 -2.26901,-0.97999 -4.24715,-3.29234 -3.73842,-5.90299 0.66994,-4.35918 5.41398,-6.52988 6.42106,-10.73153 0.4093,-1.35105 -1.54235,-3.87015 0.99684,-3.63414 -1.20974,0.85569 -2.37829,2.48365 -3.3029,3.86955 -2.71034,4.06614 -2.96741,9.19766 -2.47285,13.91522 -0.005,2.27147 1.16881,4.66631 0.40324,6.85241 -1.37278,1.12834 -3.60878,2.50254 -5.39515,1.75499 -2.00306,-1.70707 -1.82151,-4.58356 -2.41283,-6.93394 -0.3179,-2.19335 -1.2296,-4.23769 -1.66181,-6.39723 -0.44728,-2.50811 2.69882,-4.44571 4.82368,-3.16187 0.85655,0.45277 1.3879,1.3633 1.6117,2.27721 z"
       style="opacity:1;fill:#ffffff;fill-opacity:1;stroke:none;stroke-width:4;stroke-linecap:round;stroke-linejoin:miter;stroke-miterlimit:4;stroke-dasharray:none;stroke-opacity:1" />
    <path
       id="path4669"
       d="m 507.63125,119.41568 c -3.20786,-0.82637 -6.90342,-0.59148 -9.63368,1.42864 -1.226,1.09941 -1.91722,3.30585 -0.55071,4.5708 2.14238,2.1037 5.35878,2.20024 8.18197,2.11304 3.07437,-0.20505 6.22473,-0.9686 8.7753,-2.75848 1.12377,-0.69763 1.26986,-2.38201 2.72679,-2.63003 2.04128,-0.65084 4.51828,1.12762 4.22318,3.33259 -0.29881,2.42902 -2.48476,4.07958 -4.51323,5.12579 -3.59451,1.68344 -7.5596,2.45883 -11.49343,2.80699 -3.29457,0.22672 -6.73686,-0.10879 -9.6656,-1.74475 -2.4765,-1.2338 -4.56365,-3.47082 -5.04549,-6.2648 -0.82437,-4.10629 1.43366,-8.49973 5.1235,-10.4118 3.85191,-2.10758 8.43295,-2.38314 12.72163,-1.97498 1.32466,0.0424 2.67158,0.73601 3.14087,2.03613 0.86204,1.83406 -0.41562,4.20485 -2.43793,4.46318 -0.51518,0.0905 -1.05328,0.0636 -1.55317,-0.0911 z"
       style="opacity:1;fill:#ffffff;fill-opacity:1;stroke:none;stroke-width:4;stroke-linecap:round;stroke-linejoin:miter;stroke-miterlimit:4;stroke-dasharray:none;stroke-opacity:1" />
    <path
       id="path4671"
       d="m 523.01268,121.40968 c 1.57161,3.54173 2.8856,7.28407 3.18181,11.16961 0.0118,1.62344 -0.76491,3.69268 -2.59999,3.89543 -1.42983,0.1478 -3.76727,0.0491 -3.92225,-1.81238 -0.46627,-4.55187 1.02645,-8.99508 2.3654,-13.27847 1.18793,-3.495 2.76925,-7.13145 5.78998,-9.42233 2.55313,-1.67446 6.37223,-1.14512 8.14438,1.42306 2.74224,3.40679 3.44872,7.84992 4.9629,11.84085 0.56467,1.42457 1.23244,3.072 2.68156,3.78148 1.3368,0.0634 2.90252,0.23471 3.57196,1.60646 1.08189,1.83197 0.1093,4.69917 -2.12888,5.02406 -2.67046,0.49563 -5.18807,-1.19155 -6.94603,-3.04072 -2.95094,-3.39776 -3.39414,-8.06977 -5.17416,-12.05765 -0.56435,-0.90464 -0.92629,-2.77397 -1.89617,-2.91204 -1.77805,1.03017 -2.36552,3.16209 -3.08992,4.95067 -1.15534,3.18603 -2.08051,6.54606 -1.89827,9.96617 -1.09273,-2.11368 -2.55319,0.7196 -3.92776,1.06272 -0.80882,0.2772 -2.73534,1.78865 -2.22917,0.0368 0.003,-2.6261 -0.60006,-5.27745 -1.73518,-7.64054 -0.89755,-1.33545 -1.92336,-3.1002 -0.97844,-4.67978 0.89245,-1.73066 3.42234,-2.39185 4.91565,-1.02317 0.37364,0.30399 0.68555,0.68304 0.91258,1.10751 z"
       style="opacity:1;fill:#ffffff;fill-opacity:1;stroke:none;stroke-width:4;stroke-linecap:round;stroke-linejoin:miter;stroke-miterlimit:4;stroke-dasharray:none;stroke-opacity:1" />
    <path
       d="m 523.43957,123.27834 c 4.03189,0.42206 8.0979,0.33037 12.1439,0.21951 1.95078,-0.0967 1.03496,-0.0407 2.74786,-0.1589 4.49991,0 4.49991,6.3636 0,6.3636 l 0,0 c -1.7129,-0.11602 -0.79708,-0.0597 -2.74786,-0.15772 -4.046,-0.1098 -8.11201,-0.20057 -12.1439,0.22007 -4.58616,0 -4.58616,-6.48577 0,-6.48577 z"
       id="path4673"
       style="opacity:1;fill:#ffffff;fill-opacity:1;stroke:none;stroke-width:4;stroke-linecap:round;stroke-linejoin:miter;stroke-miterlimit:4;stroke-dasharray:none;stroke-opacity:1" />
    <path
       id="path4671-0"
       d="m 608.19156,121.86443 c 1.85117,4.10371 3.15034,8.48851 3.52648,12.98571 -1.24579,1.60849 -3.64004,2.05286 -5.52126,1.47543 -1.89753,-0.5328 -1.41297,-2.86585 -1.41916,-4.36201 0.29707,-2.75718 1.02075,-5.45572 1.80367,-8.10815 1.30781,-4.22537 2.85102,-8.80975 6.59043,-11.5148 3.01689,-2.04143 7.45844,-0.4073 8.9186,2.79725 2.72175,4.27226 2.82378,9.7113 5.84372,13.8308 1.78437,0.46902 4.03982,0.95219 4.82709,2.84286 0.55043,1.93706 -0.90022,4.2774 -2.99456,4.35455 -2.83051,0.21006 -5.39124,-1.64825 -7.03164,-3.80839 -3.10795,-4.25422 -3.15079,-9.93274 -6.17883,-14.2244 -1.05191,-0.21188 -2.04051,1.87428 -2.63179,2.86198 -1.04081,2.27573 -1.69458,4.71585 -2.28488,7.14001 -0.29289,1.54333 -0.32564,3.12391 -0.63547,4.66369 -1.18989,-1.02573 -2.49625,0.44301 -3.43358,1.12212 -0.71097,0.81368 -2.97536,1.50536 -2.48747,-0.26873 -0.0287,-3.33306 -1.19498,-6.56616 -2.9508,-9.36645 -1.05325,-2.60877 2.48673,-5.45088 4.79118,-3.80479 0.51336,0.36728 0.97666,0.81791 1.26827,1.38453 z"
       style="opacity:1;fill:#ffffff;fill-opacity:1;stroke:none;stroke-width:4;stroke-linecap:round;stroke-linejoin:miter;stroke-miterlimit:4;stroke-dasharray:none;stroke-opacity:1" />
    <path
       d="m 608.46525,125.56603 c 4.0322,0.42215 8.09799,0.33046 12.14413,0.2197 1.95085,-0.0965 1.03477,-0.0404 2.74794,-0.15923 4.49981,0 4.49981,6.36356 0,6.36356 l 0,0 c -1.71317,-0.11535 -0.79709,-0.0599 -2.74794,-0.1589 -4.04614,-0.1103 -8.11193,-0.20159 -12.14413,0.21941 -4.58595,0 -4.58595,-6.48548 0,-6.48548 z"
       id="path4673-6"
       style="opacity:1;fill:#ffffff;fill-opacity:1;stroke:none;stroke-width:4;stroke-linecap:round;stroke-linejoin:miter;stroke-miterlimit:4;stroke-dasharray:none;stroke-opacity:1" />
    <path
       id="path4726"
       d="m 635.26629,112.91984 c 6.03228,0.47581 12.30716,0.78464 17.82007,3.5432 2.70747,1.48086 3.38922,5.22845 2.05101,7.86033 -1.97368,3.99878 -5.55439,6.79994 -8.48538,10.05095 -1.78825,1.45451 -3.07635,3.85371 -5.55084,4.20877 -2.57269,0.46558 -4.58567,-2.94692 -3.04755,-5.01131 1.90189,-1.96315 4.30295,-3.3885 6.16234,-5.40782 1.88537,-1.837 3.62252,-3.83779 5.06898,-6.04045 0.60227,-1.00155 -1.62979,-1.22121 -2.34343,-1.56435 -3.87794,-1.31351 -8.04171,-1.56499 -12.09578,-1.16428 -2.73527,-7.5e-4 -4.00195,-4.06523 -1.87421,-5.70473 0.65918,-0.48888 1.46381,-0.8114 2.29479,-0.77032 z"
       style="opacity:1;fill:#ffffff;fill-opacity:1;stroke:none;stroke-width:4;stroke-linecap:round;stroke-linejoin:miter;stroke-miterlimit:4;stroke-dasharray:none;stroke-opacity:1" />
    <path
       d="m 636.06095,120.92779 c 0.80456,2.72097 1.67386,5.47376 2.92267,8.0292 0.15486,0.33254 0.30876,0.66522 0.46311,0.99771 1.78495,4.16964 -4.11178,6.6938 -5.89659,2.52391 l 0,0 c -0.12964,-0.33297 -0.26165,-0.66625 -0.392,-0.99928 -1.07368,-2.72372 -1.90012,-5.54506 -3.1449,-8.20146 -1.66193,-4.2764 4.38596,-6.62648 6.04771,-2.35008 z"
       id="path4728"
       style="opacity:1;fill:#ffffff;fill-opacity:1;stroke:none;stroke-width:4;stroke-linecap:round;stroke-linejoin:miter;stroke-miterlimit:4;stroke-dasharray:none;stroke-opacity:1" />
    <path
       id="path4573-7"
       d="m 582.49792,124.99849 c -0.66778,2.92243 1.53632,8.06629 -3.03655,8.58847 -4.3142,0.31206 -4.01498,-4.64813 -4.3473,-7.57462 -0.93485,-3.46245 -0.16395,-8.55339 4.06821,-9.22007 4.44891,-0.59622 7.91835,2.99401 10.76573,5.90189 1.37293,1.69996 5.65431,6.01447 5.79219,1.39975 -0.37747,-3.376 -2.43048,-6.511 -2.17582,-9.93271 0.91384,-3.68988 6.19753,-2.90982 6.34294,0.8166 0.53412,3.37781 1.40308,6.69109 1.91428,10.07342 0.53714,3.5142 -0.47143,8.36107 -4.52081,9.18954 -4.66813,0.61486 -7.79457,-3.52463 -10.72264,-6.46433 -1.39371,-1.02937 -4.10705,-4.86507 -5.34849,-2.29239 0.0869,2.48317 2.83515,5.69194 0.0671,7.66374 -2.67621,1.87674 -6.16459,-0.98786 -5.41962,-4.00869 0.17958,-2.55009 -0.65599,-6.10211 2.23818,-7.4549 2.03773,-0.86447 4.83526,1.02306 4.38147,3.3143 z"
       style="opacity:1;fill:#ffffff;fill-opacity:1;stroke:none;stroke-width:4;stroke-linecap:round;stroke-linejoin:miter;stroke-miterlimit:4;stroke-dasharray:none;stroke-opacity:1" />
    <path
       id="path4573-4"
       d="m 677.58171,125.95211 c -0.66773,2.92262 1.53632,8.0665 -3.03661,8.58894 -4.31432,0.31156 -4.01499,-4.6484 -4.34731,-7.57512 -0.9349,-3.46248 -0.16512,-8.55312 4.06823,-9.2196 4.44904,-0.59652 7.91862,2.99371 10.76584,5.90152 1.37275,1.70005 5.65435,6.01443 5.79196,1.39997 -0.37737,-3.3761 -2.43033,-6.51142 -2.17569,-9.93268 0.91393,-3.6901 6.19736,-2.90995 6.34288,0.81652 0.53415,3.37767 1.40301,6.69089 1.91434,10.07317 0.53731,3.51455 -0.4715,8.36122 -4.52096,9.18967 -4.66792,0.61493 -7.79433,-3.52442 -10.72253,-6.46434 -1.3938,-1.02953 -4.10717,-4.86501 -5.34841,-2.29246 0.0871,2.48332 2.83511,5.69219 0.0664,7.6636 -2.67607,1.87661 -6.16434,-0.9875 -5.41946,-4.00835 0.17947,-2.55016 -0.6559,-6.10236 2.23813,-7.45486 2.0376,-0.86463 4.83536,1.02285 4.38149,3.31402 z"
       style="opacity:1;fill:#ffffff;fill-opacity:1;stroke:none;stroke-width:4;stroke-linecap:round;stroke-linejoin:miter;stroke-miterlimit:4;stroke-dasharray:none;stroke-opacity:1" />
  </g>
</svg>
