<?xml version="1.0" encoding="UTF-8" standalone="no"?>
<svg
   xmlns:dc="http://purl.org/dc/elements/1.1/"
   xmlns:cc="http://creativecommons.org/ns#"
   xmlns:rdf="http://www.w3.org/1999/02/22-rdf-syntax-ns#"
   xmlns:svg="http://www.w3.org/2000/svg"
   xmlns="http://www.w3.org/2000/svg"
   version="1.1"
   id="svg2"
   viewBox="0 0 256.00001 87.41917"
   height="87.419159"
   width="256">
  <defs
     id="defs4" />
  <metadata
     id="metadata7">
    <rdf:RDF>
      <cc:Work
         rdf:about="">
        <dc:format>image/svg+xml</dc:format>
        <dc:type
           rdf:resource="http://purl.org/dc/dcmitype/StillImage" />
        <dc:title></dc:title>
      </cc:Work>
    </rdf:RDF>
  </metadata>
  <path
     style="opacity:1;fill:#212121;fill-opacity:1;stroke:none;stroke-width:4;stroke-linecap:round;stroke-linejoin:miter;stroke-miterlimit:4;stroke-dasharray:none;stroke-opacity:1"
     d="m 46.456698,13.631312 c 2.640592,10.817786 2.413819,22.037409 3.942968,33.016318 1.690546,3.659817 -6.254623,3.079495 -3.932776,-0.275191 3.143697,-13.799292 1.317545,-28.055853 2.902146,-42.0188811 0.407033,-2.921549 3.906688,-5.693614 6.64545,-3.64954303 3.289288,2.13312803 4.699586,6.00417003 6.601066,9.25269003 5.018619,10.4469331 5.908594,22.2450121 10.15722,32.9633171 -1.571115,1.446898 -2.126729,-2.318306 -0.937652,-3.220612 2.32747,-8.100004 0.844946,-16.643887 2.182748,-24.88622 0.500201,-2.851197 1.018451,-5.8941101 2.65644,-8.3202551 2.645696,-2.374635 6.713871,-0.193993 7.091211,3.079309 3.089114,7.8095771 3.127818,16.3297251 4.734224,24.4788411 -0.174494,2.592469 1.857871,5.166427 0.683835,7.692222 -1.733956,2.369309 -5.244259,0.101112 -4.899195,-2.494874 C 84.105032,32.671994 83.359619,26.092294 82.026841,19.645432 81.473827,17.600849 81.406076,15.492854 80.514194,13.393868 80.199469,12.323348 79.046879,10.350165 78.715612,12.784784 77.427282,14.87035 77.72982,25.296572 77.334743,31.713798 77.14882,36.834079 76.661778,42.045942 74.749859,46.84668 72.711353,49.629618 68.085978,47.697257 68.120352,44.393725 64.757347,33.18585 64.181116,20.989399 58.175246,10.691001 57.428557,9.1227559 54.829085,4.4407789 53.436205,7.4669559 52.320438,17.653718 53.039995,27.932284 52.131389,38.135513 c -0.210918,2.975065 -0.468443,5.946932 -0.745573,8.91667 1.245081,3.013027 -3.992407,5.054029 -5.336414,2.207655 -1.203912,-3.407324 -0.08502,-7.066168 -0.686116,-10.564188 -0.278621,-6.721113 -0.78474,-13.485906 -2.488215,-20.016957 -1.464156,-1.725343 -1.966495,-5.011575 0.11412,-6.453616 1.26541,-0.636428 3.106827,-0.04587 3.466143,1.406235 z"
     id="path4453" />
  <path
     style="opacity:1;fill:#212121;fill-opacity:1;stroke:none;stroke-width:4;stroke-linecap:round;stroke-linejoin:miter;stroke-miterlimit:4;stroke-dasharray:none;stroke-opacity:1"
     d="m 102.09667,25.88085 c -1.09872,4.094804 -1.73483,8.298049 -2.396141,12.478668 -0.160418,2.176058 -0.165323,4.745781 -2.006604,6.260079 -1.678129,1.394451 -4.69725,0.33129 -4.911709,-1.911482 -0.371988,-2.210766 0.0064,-4.458402 0.170203,-6.671912 0.44183,-3.954349 0.890702,-7.916681 1.610649,-11.830196 0.462685,-2.167101 1.97018,-4.333404 4.295856,-4.689785 2.485056,-0.467901 4.898906,0.855554 6.553946,2.625145 3.83901,3.696352 5.9341,8.683476 8.76906,13.101172 0.60153,1.131957 1.88412,1.70944 2.39711,2.875261 0.74549,1.709879 -1.042,3.687986 -2.81208,3.203353 -1.1851,-0.357857 -1.94279,-1.454969 -2.72709,-2.348326 -2.08392,-2.766086 -3.29224,-6.063461 -5.22119,-8.930746 -1.38871,-2.126386 -2.98551,-4.282808 -5.27114,-5.491688 -1.243852,-0.787691 -1.408344,1.313852 -1.729992,2.086374 -0.624985,3.314147 -1.050361,6.675995 -1.20175,10.047438 -0.0713,1.361513 0.03996,2.738698 0.09239,4.086398 -0.780106,-0.706015 -1.973115,-1.164712 -2.987276,-0.528594 -0.58403,0.239294 -0.560104,0.969769 -0.289714,0.04546 0.665962,-2.436582 0.992914,-4.950254 1.501426,-7.422087 0.517244,-2.813005 0.840288,-5.661628 1.210881,-8.491732 0.599025,-1.823273 3.391725,-2.306582 4.488685,-0.679704 0.45817,0.617544 0.62029,1.436945 0.46309,2.18621 z"
     id="path4455" />
  <path
     style="opacity:1;fill:#212121;fill-opacity:1;stroke:none;stroke-width:4;stroke-linecap:round;stroke-linejoin:miter;stroke-miterlimit:4;stroke-dasharray:none;stroke-opacity:1"
     id="path4457"
     d="m 95.087236,32.417906 c 4.150472,-0.428502 8.310984,-0.735492 12.467584,-1.094138 2.18856,-0.12243 5.51054,-0.487034 7.69845,-0.620534 3.24463,-0.136316 3.43803,4.451807 0.19191,4.588737 -3.40582,0.230911 -6.04544,0.374094 -7.538,0.437857 -3.90072,0.289468 -7.86399,0.565369 -11.61045,1.770787 -3.593941,0.856208 -4.804775,-4.226462 -1.210754,-5.082709 z" />
  <path
     style="opacity:1;fill:#212121;fill-opacity:1;stroke:none;stroke-width:4;stroke-linecap:round;stroke-linejoin:miter;stroke-miterlimit:4;stroke-dasharray:none;stroke-opacity:1"
     d="m 124.98456,30.508674 c -0.10407,3.921833 0.79672,7.786874 1.93963,11.513006 0.32571,2.407647 -2.94398,3.786196 -4.69148,2.306272 -1.90856,-1.751463 -1.98185,-4.588146 -2.38361,-6.981023 -0.45189,-4.285783 -0.77685,-9.113638 1.95538,-12.765073 2.15666,-2.936982 5.65457,-5.159145 9.35865,-5.18083 2.14667,0.06851 4.11039,2.029054 3.67185,4.233783 -0.4642,3.187242 -3.11906,5.372647 -4.85694,7.895068 -0.65896,1.2853 -2.845,2.729861 -2.70105,3.952722 3.22927,0.235577 6.48932,-0.28233 9.65629,-0.919493 2.489,-0.463371 4.90351,-1.332107 7.37314,-1.805216 2.46974,0.235601 2.83556,4.266306 0.23971,4.666098 -3.11073,1.158547 -6.44858,1.510055 -9.68467,2.173544 -3.34273,0.488135 -6.7979,1.111501 -10.15635,0.514877 -2.56539,-0.649127 -3.9565,-3.759518 -2.40349,-5.995814 1.57098,-3.112904 4.62575,-5.195473 6.19759,-8.287505 -0.15675,-1.124261 2.37474,-2.568041 1.39716,-0.850609 -1.21892,1.055505 -3.16899,0.728465 -4.18849,2.135614 -2.1846,2.851382 -1.50406,6.640138 -1.13782,9.940815 0.58594,1.508635 1.34154,3.411423 -0.70411,4.01824 -1.59148,1.79102 -3.04499,-0.211883 -2.7796,-1.988468 -0.55806,-2.995953 -1.00963,-6.017179 -1.31732,-9.050505 0.083,-2.586894 4.34363,-3.200617 5.03189,-0.62626 0.1333,0.350032 0.19585,0.726487 0.18306,1.100757 z"
     id="path4459" />
  <path
     style="opacity:1;fill:#212121;fill-opacity:1;stroke:none;stroke-width:4;stroke-linecap:round;stroke-linejoin:miter;stroke-miterlimit:4;stroke-dasharray:none;stroke-opacity:1"
     d="m 154.16914,28.298761 c -2.43148,-0.321297 -5.22805,1.068561 -5.87004,3.554734 -0.60102,2.485136 1.62159,4.894609 4.03124,5.142477 2.38809,0.549928 5.05777,0.759425 7.28605,-0.453275 1.08883,-1.021529 2.82705,-1.831798 4.24407,-0.980934 1.7254,1.046173 1.29736,3.915413 -0.4573,4.707402 -3.6762,2.273868 -8.29429,2.259225 -12.36418,1.200562 -2.71727,-0.681212 -5.37455,-2.230601 -6.69688,-4.788664 -1.63951,-3.069877 -1.10763,-7.038494 1.08965,-9.697908 1.44189,-1.855805 3.61013,-3.138705 5.94997,-3.418777 1.57244,-0.482209 3.54382,-0.85986 4.89493,0.346826 1.5794,1.512544 0.1359,4.786806 -2.10751,4.387557 z"
     id="path4561" />
  <path
     style="opacity:1;fill:#212121;fill-opacity:1;stroke:none;stroke-width:4;stroke-linecap:round;stroke-linejoin:miter;stroke-miterlimit:4;stroke-dasharray:none;stroke-opacity:1"
     d="m 172.85536,29.760621 c -2.75091,-0.949839 -6.27892,1.192395 -6.05897,4.261601 0.3929,2.340654 3.15567,3.12076 5.21522,3.053336 1.87613,-0.09521 4.29418,-0.93191 4.46681,-3.125665 0.21227,-2.382923 -1.40974,-4.433686 -3.21617,-5.785007 -1.58929,-1.32741 -0.53672,-4.146907 1.47951,-4.282792 2.05278,-0.0402 3.23214,1.97093 4.40175,3.356991 2.26473,3.087439 3.24641,7.6966 0.79195,10.964722 -3.47445,4.411897 -10.62086,4.84438 -14.96467,1.490284 -2.76919,-2.015808 -3.70077,-5.913013 -2.35421,-9.025175 1.1727,-3.362104 4.42468,-5.656683 7.9158,-6.00457 1.75191,-0.10782 4.24508,-0.541777 5.15492,1.414509 0.98742,1.837709 -0.81139,4.138948 -2.83194,3.681766 z"
     id="path4563" />
  <path
     style="opacity:1;fill:#212121;fill-opacity:1;stroke:none;stroke-width:4;stroke-linecap:round;stroke-linejoin:miter;stroke-miterlimit:4;stroke-dasharray:none;stroke-opacity:1"
     d="M 24.492105,42.093518 C 20.12735,39.948883 14.421076,39.650852 10.33999,42.57676 c -1.892883,1.268765 -2.9825943,4.065638 -1.2912504,5.933511 2.0904654,2.71735 5.2066954,4.378196 7.9838584,6.291782 6.301726,4.075185 13.085094,7.94891 17.593941,14.118587 2.480981,3.685285 2.560304,9.016682 -0.551635,12.375632 -4.132487,4.71097 -10.830264,6.72766 -16.960128,5.96612 -6.147688,-0.82504 -12.2324034,-3.92924 -15.8147157,-9.09946 -1.12355104,-1.78358 -2.03109621,-4.520883 -0.45367294,-6.293904 2.32447944,-1.615355 4.88224734,1.141967 4.45797184,3.515575 1.2112725,2.935589 4.1602898,4.716119 6.9171718,6.024379 5.484263,2.52065 12.480024,2.22068 17.167313,-1.83015 2.076859,-1.69295 3.356393,-4.660176 2.17439,-7.240546 -1.615649,-4.264091 -5.654482,-6.816859 -9.03374,-9.581493 C 16.748562,58.577036 9.5731783,56.245322 4.7954088,50.755322 2.7866836,48.15601 2.819622,44.366986 4.7282559,41.721113 7.8027981,36.940006 13.955575,35.386352 19.331173,35.915429 c 2.726241,0.226783 5.579944,0.604645 8.013615,1.885816 2.03679,1.879525 -0.272273,5.628037 -2.852284,4.292273 z"
     id="path4565" />
  <path
     style="opacity:1;fill:#212121;fill-opacity:1;stroke:none;stroke-width:4;stroke-linecap:round;stroke-linejoin:miter;stroke-miterlimit:4;stroke-dasharray:none;stroke-opacity:1"
     d="m 86.971018,73.193592 c -0.532414,2.330948 1.225333,6.43315 -2.421795,6.84991 -3.440909,0.2487 -3.202189,-3.70717 -3.467268,-6.041172 -0.745461,-2.761685 -0.131562,-6.821708 3.244841,-7.353252 3.548138,-0.475653 6.315213,2.38762 8.586049,4.706788 1.094784,1.355789 4.509741,4.796856 4.619275,1.116239 -0.300888,-2.692298 -1.938183,-5.192715 -1.735177,-7.921731 0.72892,-2.942645 4.942757,-2.320627 5.058817,0.651383 0.42597,2.693932 1.11882,5.336439 1.52655,8.033882 0.42854,2.802836 -0.37591,6.668243 -3.605501,7.329053 -3.722663,0.49034 -6.216333,-2.810919 -8.551691,-5.155524 -1.11154,-0.820981 -3.275538,-3.880188 -4.265501,-1.828394 0.06907,1.980564 2.260963,4.539538 0.05328,6.112198 -2.134362,1.4968 -4.916295,-0.78781 -4.322342,-3.197028 0.143278,-2.033744 -0.522972,-4.866856 1.785094,-5.94553 1.625156,-0.689505 3.856316,0.815788 3.4944,2.643178 z"
     id="path4573" />
  <path
     style="opacity:1;fill:#212121;fill-opacity:1;stroke:none;stroke-width:4;stroke-linecap:round;stroke-linejoin:miter;stroke-miterlimit:4;stroke-dasharray:none;stroke-opacity:1"
     id="path4585"
     d="m 174.74175,67.341143 c 0.7838,2.539305 1.22864,5.154227 1.67175,7.767838 0.17445,1.275882 0.0916,0.67082 0.2499,1.814038 0.31156,3.636443 -4.831,4.077123 -5.14246,0.44086 l 0,0 c -0.0256,-1.013303 -0.002,-0.480107 -0.0785,-1.599902 -0.1956,-2.172994 -0.52026,-4.391362 -1.50296,-6.364493 -1.45529,-3.395936 3.3471,-5.454076 4.80246,-2.058341 z" />
  <path
     style="opacity:1;fill:#212121;fill-opacity:1;stroke:none;stroke-width:4;stroke-linecap:round;stroke-linejoin:miter;stroke-miterlimit:4;stroke-dasharray:none;stroke-opacity:1"
     d="m 210.11976,68.13811 c 0.7649,4.48564 0.45469,9.133653 -0.77801,13.507642 -1.7079,0.47296 -3.82608,0.10205 -4.92426,-1.38746 -0.42951,-0.99505 0.0727,-2.09139 0.21098,-3.102555 0.44156,-1.790984 0.90433,-3.584238 1.09752,-5.421414 0.65869,-3.161059 1.48579,-6.529001 3.86118,-8.874934 1.8236,-1.657026 4.81445,-1.175256 6.4668,0.49158 2.49177,2.403021 3.27104,5.891925 4.66458,8.939744 0.56019,1.264181 1.30997,2.439157 2.2103,3.485834 1.0985,1.764578 -0.92412,4.404335 -2.91099,3.666795 -1.79055,-0.72439 -2.62139,-2.640273 -3.32723,-4.303384 -1.12021,-2.743284 -1.90854,-5.714802 -3.80203,-8.056628 -0.9465,-0.176543 -1.27189,1.491927 -1.63842,2.197328 -0.42379,1.534595 -0.77271,3.095264 -1.02688,4.666339 -0.25792,1.778874 -0.40943,3.571852 -0.68469,5.348635 -1.56591,0.79813 -3.26358,-0.0701 -4.85141,-0.31236 1.3718,-3.256867 1.196,-6.953444 0.2673,-10.302245 -0.18182,-1.539333 1.45792,-2.647363 2.86476,-2.574811 1.15883,0.0016 2.11518,0.909786 2.30014,2.031894 z"
     id="path4599" />
  <path
     style="opacity:1;fill:#212121;fill-opacity:1;stroke:none;stroke-width:4;stroke-linecap:round;stroke-linejoin:miter;stroke-miterlimit:4;stroke-dasharray:none;stroke-opacity:1"
     id="path4601"
     d="m 207.9835,72.488224 c 3.23011,-0.488759 6.45673,-0.9903 9.69792,-1.406026 2.0697,-0.205981 1.06124,-0.111305 3.02556,-0.287497 3.43971,-0.225273 3.7585,4.639166 0.31861,4.864527 l 0,0 c -1.83839,0.07186 -0.89674,0.02002 -2.82443,0.155856 -2.97506,0.268508 -5.95946,0.672063 -8.77885,1.708981 -3.56089,1.017537 -4.99978,-4.018698 -1.43881,-5.036121 z" />
  <path
     style="opacity:1;fill:#212121;fill-opacity:1;stroke:none;stroke-width:4;stroke-linecap:round;stroke-linejoin:miter;stroke-miterlimit:4;stroke-dasharray:none;stroke-opacity:1"
     id="path4605"
     d="m 255.05718,67.539069 c 0.0381,1.886941 0.40136,3.751008 0.78071,5.59454 0.0402,0.186904 0.0822,0.373289 0.12338,0.560017 0.53621,3.675685 -4.66203,4.434076 -5.19821,0.758365 l 0,0 c -0.008,-0.18652 -0.0252,-0.373233 -0.0388,-0.559642 -0.18249,-2.017117 -0.51732,-4.016383 -0.89253,-6.005321 -0.24613,-3.695404 4.97995,-4.043378 5.22584,-0.347943 z" />
  <path
     style="opacity:1;fill:#212121;fill-opacity:1;stroke:none;stroke-width:4;stroke-linecap:round;stroke-linejoin:miter;stroke-miterlimit:4;stroke-dasharray:none;stroke-opacity:1"
     d="m 230.1909,71.469133 c 0.41363,2.530262 1.044,5.021938 1.81909,7.464599 -0.93755,-1.465989 -2.29674,-0.17873 -3.41767,0.2766 -1.86002,0.90659 -0.98085,-2.002803 -1.27961,-2.988391 -0.22177,-5.060914 0.42758,-10.414444 3.36517,-14.685217 1.06799,-1.56936 2.13192,-3.300525 3.81048,-4.276715 1.70302,-0.923384 4.12787,-0.535277 5.10948,1.248661 1.13404,1.754597 1.61125,3.902605 1.60035,5.971847 -0.25609,3.369082 -2.57607,6.03916 -4.68324,8.479962 -0.23545,0.328499 -0.59105,1.51386 -0.25665,0.545614 1.44516,0.534376 2.88122,1.12194 4.43122,1.263989 4.0463,0.681842 8.161,0.276013 12.23434,0.321369 2.05324,0.343892 2.73299,3.564281 0.82127,4.562441 -1.59448,0.81412 -3.4162,0.20939 -5.11703,0.36039 -4.9328,-0.092 -10.03929,-0.1808 -14.66687,-2.09119 -1.80963,-0.781583 -3.38727,-2.62578 -2.98154,-4.707878 0.5343,-3.476624 4.31787,-5.207845 5.12105,-8.558831 0.32644,-1.077517 -1.23008,-3.086601 0.79502,-2.898373 -0.96481,0.682447 -1.89678,1.980811 -2.63419,3.086122 -2.16161,3.242911 -2.36663,7.335506 -1.9722,11.097952 -0.004,1.811593 0.93217,3.721578 0.3216,5.465078 -1.09485,0.89989 -2.87815,1.99587 -4.30285,1.39967 -1.59752,-1.36145 -1.45273,-3.65557 -1.92433,-5.530092 -0.25354,-1.749289 -0.98066,-3.379733 -1.32536,-5.102055 -0.35673,-2.000319 2.15242,-3.545633 3.84708,-2.521719 0.68313,0.361102 1.1069,1.087287 1.28539,1.816167 z"
     id="path4667" />
  <path
     style="opacity:1;fill:#212121;fill-opacity:1;stroke:none;stroke-width:4;stroke-linecap:round;stroke-linejoin:miter;stroke-miterlimit:4;stroke-dasharray:none;stroke-opacity:1"
     d="m 50.658952,69.567011 c -2.558398,-0.659064 -5.505757,-0.471729 -7.68325,1.139398 -0.977784,0.876824 -1.52906,2.636547 -0.439213,3.645395 1.708635,1.677786 4.273844,1.754781 6.525452,1.685235 2.451934,-0.163535 4.964473,-0.772497 6.998656,-2.199999 0.896252,-0.556388 1.012765,-1.899747 2.174725,-2.097553 1.628004,-0.519071 3.603511,0.89932 3.368157,2.657873 -0.238313,1.937242 -1.981696,3.253634 -3.599483,4.088032 -2.866767,1.34261 -6.029087,1.96101 -9.166475,2.23868 -2.627553,0.18082 -5.372918,-0.0868 -7.708707,-1.3915 -1.975109,-0.98401 -3.639695,-2.768127 -4.023982,-4.996439 -0.657468,-3.27493 1.143402,-6.778876 4.086198,-8.303829 3.072054,-1.68088 6.725619,-1.900651 10.146014,-1.575127 1.05647,0.03382 2.130693,0.586998 2.504971,1.623896 0.687512,1.462737 -0.331474,3.353538 -1.944348,3.559567 -0.410876,0.07218 -0.840033,0.05072 -1.238715,-0.07266 z"
     id="path4669" />
  <path
     style="opacity:1;fill:#212121;fill-opacity:1;stroke:none;stroke-width:4;stroke-linecap:round;stroke-linejoin:miter;stroke-miterlimit:4;stroke-dasharray:none;stroke-opacity:1"
     d="m 62.333173,69.674587 c 1.253422,2.824675 2.301382,5.809342 2.537622,8.908225 0.0094,1.29475 -0.610047,2.94506 -2.073597,3.10676 -1.140348,0.11787 -3.00455,0.0392 -3.128153,-1.44545 -0.371869,-3.630302 0.818635,-7.173941 1.886502,-10.590119 0.947422,-2.787404 2.208589,-5.68762 4.617743,-7.514689 2.036224,-1.33545 5.082111,-0.91328 6.495472,1.134948 2.187047,2.717052 2.750494,6.260628 3.958114,9.443558 0.450347,1.136152 0.98292,2.450044 2.138652,3.015883 1.066155,0.05056 2.31488,0.18719 2.848786,1.281216 0.862851,1.461073 0.08717,3.747783 -1.697868,4.006893 -2.129803,0.39528 -4.137699,-0.95031 -5.539743,-2.42509 -2.353494,-2.70986 -2.706964,-6.435978 -4.126602,-9.616474 -0.450092,-0.721486 -0.738753,-2.212353 -1.512272,-2.322469 -1.418067,0.821602 -1.886598,2.521894 -2.464336,3.948359 -0.92143,2.54099 -1.659291,5.220749 -1.513947,7.948434 -0.871496,-1.685754 -2.036272,0.57391 -3.132547,0.84756 -0.645067,0.22108 -2.181545,1.42652 -1.777854,0.0294 0.0024,-2.094424 -0.478572,-4.208987 -1.383876,-6.093647 -0.715832,-1.065077 -1.533957,-2.472536 -0.780345,-3.732315 0.711765,-1.380271 2.729454,-1.907597 3.920429,-0.816019 0.297993,0.242444 0.546754,0.544752 0.72782,0.883284 z"
     id="path4671" />
  <path
     style="opacity:1;fill:#212121;fill-opacity:1;stroke:none;stroke-width:4;stroke-linecap:round;stroke-linejoin:miter;stroke-miterlimit:4;stroke-dasharray:none;stroke-opacity:1"
     id="path4673"
     d="m 62.673635,71.164919 c 3.215595,0.33661 6.458402,0.263483 9.685251,0.175068 1.555826,-0.07712 0.825422,-0.03246 2.191529,-0.126729 3.58886,0 3.58886,5.07523 0,5.07523 l 0,0 c -1.366107,-0.09253 -0.635703,-0.04761 -2.191529,-0.125788 -3.226849,-0.08757 -6.469656,-0.159963 -9.685251,0.175514 -3.657648,0 -3.657648,-5.172665 0,-5.172665 z" />
  <path
     style="opacity:1;fill:#212121;fill-opacity:1;stroke:none;stroke-width:4;stroke-linecap:round;stroke-linejoin:miter;stroke-miterlimit:4;stroke-dasharray:none;stroke-opacity:1"
     d="m 130.26676,70.037269 c 1.47639,3.272876 2.51253,6.769931 2.81251,10.356633 -0.99357,1.28283 -2.90307,1.63724 -4.40342,1.17671 -1.51335,-0.42493 -1.1269,-2.28563 -1.13183,-3.47887 0.23692,-2.19897 0.81408,-4.351165 1.4385,-6.466586 1.04303,-3.369904 2.27379,-7.026132 5.25612,-9.183519 2.40609,-1.628123 5.94841,-0.324838 7.11295,2.23092 2.1707,3.4073 2.25207,7.745156 4.6606,11.030624 1.42311,0.374062 3.22192,0.75941 3.8498,2.267301 0.43899,1.54488 -0.71796,3.4114 -2.38829,3.47293 -2.25744,0.16753 -4.29973,-1.31455 -5.60801,-3.03735 -2.47872,-3.392913 -2.51288,-7.921764 -4.92787,-11.344536 -0.83894,-0.168983 -1.62739,1.494814 -2.09896,2.282544 -0.83009,1.814987 -1.35149,3.761083 -1.82228,5.694449 -0.23359,1.230868 -0.25971,2.491448 -0.50681,3.719483 -0.94899,-0.81806 -1.99087,0.35332 -2.73842,0.89494 -0.56702,0.64894 -2.37297,1.20058 -1.98385,-0.21433 -0.0229,-2.658249 -0.95305,-5.236777 -2.35339,-7.470123 -0.84001,-2.0806 1.98327,-4.347297 3.82116,-3.034474 0.40943,0.292921 0.77893,0.652316 1.01149,1.104219 z"
     id="path4671-0" />
  <path
     style="opacity:1;fill:#212121;fill-opacity:1;stroke:none;stroke-width:4;stroke-linecap:round;stroke-linejoin:miter;stroke-miterlimit:4;stroke-dasharray:none;stroke-opacity:1"
     id="path4673-6"
     d="m 130.48504,72.989446 c 3.21584,0.336682 6.45848,0.263555 9.68544,0.175219 1.55588,-0.07696 0.82527,-0.03222 2.19159,-0.126992 3.58878,0 3.58878,5.075199 0,5.075199 l 0,0 c -1.36632,-0.092 -0.63571,-0.0478 -2.19159,-0.12673 -3.22696,-0.088 -6.4696,-0.16077 -9.68544,0.17499 -3.65747,0 -3.65747,-5.172436 0,-5.172436 z" />
  <path
     style="opacity:1;fill:#212121;fill-opacity:1;stroke:none;stroke-width:4;stroke-linecap:round;stroke-linejoin:miter;stroke-miterlimit:4;stroke-dasharray:none;stroke-opacity:1"
     d="m 151.85995,62.903597 c 4.81099,0.379477 9.81546,0.625782 14.21223,2.825845 2.15932,1.181046 2.70304,4.1699 1.63576,6.268931 -1.57409,3.18919 -4.42985,5.423232 -6.76743,8.016039 -1.4262,1.16003 -2.45351,3.07349 -4.42702,3.35667 -2.05182,0.37132 -3.65726,-2.35029 -2.43054,-3.99672 1.51683,-1.56569 3.43177,-2.702473 4.91471,-4.312962 1.50366,-1.465082 2.88911,-3.060794 4.04272,-4.817505 0.48033,-0.798776 -1.29983,-0.973964 -1.86898,-1.247632 -3.09282,-1.047577 -6.41359,-1.248143 -9.64688,-0.92856 -2.18148,-5.98e-4 -3.19171,-3.242186 -1.49475,-4.549753 0.52572,-0.389902 1.16744,-0.647124 1.83018,-0.614361 z"
     id="path4726" />
  <path
     style="opacity:1;fill:#212121;fill-opacity:1;stroke:none;stroke-width:4;stroke-linecap:round;stroke-linejoin:miter;stroke-miterlimit:4;stroke-dasharray:none;stroke-opacity:1"
     id="path4728"
     d="m 152.49373,69.29026 c 0.64167,2.170084 1.33497,4.365547 2.33094,6.403614 0.12351,0.265214 0.24625,0.530539 0.36935,0.795714 1.42357,3.325454 -3.27931,5.338574 -4.70277,2.012924 l 0,0 c -0.10339,-0.26556 -0.20867,-0.53136 -0.31263,-0.796966 -0.8563,-2.172281 -1.51542,-4.422414 -2.50819,-6.541002 -1.32545,-3.410602 3.49798,-5.284885 4.8233,-1.874284 z" />
  <path
     style="opacity:1;fill:#212121;fill-opacity:1;stroke:none;stroke-width:4;stroke-linecap:round;stroke-linejoin:miter;stroke-miterlimit:4;stroke-dasharray:none;stroke-opacity:1"
     d="m 109.77505,72.53681 c -0.53258,2.330756 1.22528,6.433192 -2.42177,6.849652 -3.44075,0.24888 -3.20211,-3.707072 -3.46714,-6.041066 -0.74559,-2.761445 -0.13076,-6.821676 3.24456,-7.35338 3.54818,-0.475509 6.3152,2.387844 8.5861,4.706996 1.09497,1.355787 4.50954,4.796784 4.61951,1.116357 -0.30105,-2.692496 -1.93841,-5.192786 -1.73531,-7.921738 0.72883,-2.942828 4.94278,-2.320699 5.05875,0.651272 0.42599,2.69394 1.11902,5.336415 1.52672,8.033961 0.42839,2.802717 -0.37598,6.668298 -3.60553,7.329028 -3.72302,0.49038 -6.21648,-2.811029 -8.55174,-5.155563 -1.11154,-0.820964 -3.27554,-3.880091 -4.26563,-1.828273 0.0693,1.980428 2.26114,4.539556 0.0535,6.112146 -2.13439,1.49677 -4.91651,-0.78786 -4.32237,-3.197096 0.14323,-2.0338 -0.52317,-4.866681 1.78504,-5.945586 1.62518,-0.68945 3.85632,0.815932 3.4944,2.64329 z"
     id="path4573-7" />
  <path
     style="opacity:1;fill:#212121;fill-opacity:1;stroke:none;stroke-width:4;stroke-linecap:round;stroke-linejoin:miter;stroke-miterlimit:4;stroke-dasharray:none;stroke-opacity:1"
     d="m 185.60821,73.29736 c -0.53254,2.330908 1.22528,6.433362 -2.42182,6.850032 -3.44084,0.24848 -3.20211,-3.707292 -3.46715,-6.041469 -0.74562,-2.76147 -0.13169,-6.821461 3.24457,-7.353006 3.54829,-0.475748 6.31542,2.387605 8.5862,4.706701 1.09482,1.35586 4.50957,4.796753 4.61932,1.116534 -0.30097,-2.692577 -1.93829,-5.193122 -1.7352,-7.921715 0.72889,-2.943004 4.94264,-2.320803 5.0587,0.651208 0.42601,2.693828 1.11896,5.336255 1.52677,8.033762 0.42852,2.802995 -0.37604,6.668415 -3.60565,7.329135 -3.72286,0.49043 -6.2163,-2.81087 -8.55165,-5.155575 -1.11162,-0.821091 -3.27564,-3.880043 -4.26558,-1.828329 0.0695,1.980548 2.26112,4.539754 0.053,6.112034 -2.13427,1.49667 -4.91631,-0.78757 -4.32224,-3.196824 0.14314,-2.033856 -0.52311,-4.866881 1.785,-5.945554 1.62507,-0.689578 3.8564,0.815764 3.49442,2.643066 z"
     id="path4573-4" />
</svg>
