<?xml version="1.0" encoding="UTF-8" standalone="no"?>
<svg
   xmlns:dc="http://purl.org/dc/elements/1.1/"
   xmlns:cc="http://creativecommons.org/ns#"
   xmlns:rdf="http://www.w3.org/1999/02/22-rdf-syntax-ns#"
   xmlns:svg="http://www.w3.org/2000/svg"
   xmlns="http://www.w3.org/2000/svg"
   version="1.1"
   id="svg2"
   viewBox="0 0 512.00002 184.4646"
   height="184.4646"
   width="512">
  <defs
     id="defs4" />
  <metadata
     id="metadata7">
    <rdf:RDF>
      <cc:Work
         rdf:about="">
        <dc:format>image/svg+xml</dc:format>
        <dc:type
           rdf:resource="http://purl.org/dc/dcmitype/StillImage" />
        <dc:title></dc:title>
      </cc:Work>
    </rdf:RDF>
  </metadata>
  <g
     transform="matrix(4.3371963,0,0,4.3371963,-1019.7565,-531.36968)"
     id="layer1"
     style="fill:#800000">
    <path
       id="path4453"
       d="m 256.08274,128.80022 c 1.21764,4.9884 1.11317,10.16203 1.81823,15.22472 0.77961,1.68766 -2.88418,1.42006 -1.81349,-0.12688 1.44963,-6.36326 0.60756,-12.93733 1.33827,-19.37608 0.18766,-1.34715 1.80148,-2.62546 3.06439,-1.68288 1.51675,0.98357 2.16703,2.76868 3.04386,4.26666 2.31428,4.8174 2.72465,10.25776 4.68386,15.20034 -0.72452,0.66713 -0.9808,-1.06907 -0.43238,-1.48521 1.07327,-3.73509 0.38963,-7.67491 1.00654,-11.47566 0.23064,-1.31477 0.46961,-2.71796 1.22494,-3.83668 1.21995,-1.09503 3.09587,-0.0899 3.26995,1.41992 1.42444,3.60123 1.44233,7.53008 2.18305,11.28787 -0.0805,1.19547 0.85667,2.38239 0.31534,3.54709 -0.79961,1.09253 -2.41827,0.0469 -2.25922,-1.15047 -0.083,-3.03259 -0.42638,-6.0667 -1.04095,-9.03946 -0.25504,-0.94272 -0.28624,-1.91484 -0.69756,-2.88274 -0.1451,-0.49371 -0.67661,-1.40366 -0.82932,-0.28087 -0.59407,0.96173 -0.45464,5.76949 -0.63675,8.72866 -0.0859,2.36116 -0.31034,4.76439 -1.192,6.97818 -0.93995,1.28339 -3.07288,0.39228 -3.05699,-1.13115 -1.55087,-5.16824 -1.81656,-10.79224 -4.58599,-15.54122 -0.34438,-0.72314 -1.54304,-2.88215 -2.1853,-1.48668 -0.5145,4.69738 -0.18277,9.43714 -0.60165,14.14209 -0.0975,1.37194 -0.216,2.7423 -0.3439,4.11171 0.57415,1.38943 -1.84097,2.33058 -2.46076,1.01798 -0.55512,-1.57116 -0.0391,-3.25834 -0.31636,-4.87138 -0.12853,-3.09923 -0.36186,-6.21875 -1.14741,-9.2304 -0.67512,-0.79555 -0.90672,-2.31088 0.0533,-2.97595 0.58346,-0.29348 1.43263,-0.0216 1.59834,0.64849 z"
       style="opacity:1;fill:#212121;fill-opacity:1;stroke:none;stroke-width:4;stroke-linecap:round;stroke-linejoin:miter;stroke-miterlimit:4;stroke-dasharray:none;stroke-opacity:1" />
    <path
       id="path4455"
       d="m 281.73985,134.44882 c -0.50663,1.88829 -0.79991,3.82654 -1.10493,5.75433 -0.0741,1.00331 -0.0765,2.18832 -0.92527,2.88661 -0.77379,0.64304 -2.166,0.15275 -2.26484,-0.88143 -0.17165,-1.01938 0.005,-2.05585 0.0786,-3.07663 0.20381,-1.82341 0.41081,-3.65054 0.74267,-5.45523 0.21335,-0.99923 0.90857,-1.99819 1.98099,-2.16257 1.14592,-0.21583 2.25904,0.39453 3.02213,1.21054 1.77031,1.70453 2.73634,4.0042 4.04371,6.04138 0.27742,0.52185 0.86879,0.78825 1.10534,1.32578 0.3438,0.78845 -0.48047,1.70064 -1.29669,1.47723 -0.54646,-0.16511 -0.89592,-0.67098 -1.25753,-1.08292 -0.96098,-1.27554 -1.51811,-2.79599 -2.40766,-4.11818 -0.64034,-0.98057 -1.37667,-1.97501 -2.43065,-2.53239 -0.57354,-0.36326 -0.6494,0.60589 -0.79773,0.96206 -0.28826,1.52823 -0.48437,3.07849 -0.55422,4.63314 -0.0332,0.62792 0.019,1.26286 0.043,1.88434 -0.35969,-0.32558 -0.90985,-0.53701 -1.37747,-0.24376 -0.26927,0.11036 -0.25826,0.4472 -0.13368,0.0214 0.3072,-1.12357 0.45796,-2.28265 0.69242,-3.42255 0.23852,-1.2971 0.38749,-2.61072 0.55839,-3.91573 0.27625,-0.8408 1.56404,-1.06366 2.06987,-0.31346 0.21123,0.28475 0.28598,0.66258 0.21353,1.00807 z"
       style="opacity:1;fill:#212121;fill-opacity:1;stroke:none;stroke-width:4;stroke-linecap:round;stroke-linejoin:miter;stroke-miterlimit:4;stroke-dasharray:none;stroke-opacity:1" />
    <path
       d="m 278.50764,137.46325 c 1.91389,-0.19757 3.83251,-0.33917 5.74918,-0.50452 1.00916,-0.0566 2.54109,-0.22463 3.54993,-0.28618 1.49623,-0.0631 1.58542,2.05293 0.0892,2.11599 -1.57064,0.10653 -2.78778,0.17249 -3.47604,0.20189 -1.79867,0.13357 -3.6263,0.26073 -5.3539,0.81656 -1.65726,0.39483 -2.21563,-1.94891 -0.55837,-2.34374 z"
       id="path4457"
       style="opacity:1;fill:#212121;fill-opacity:1;stroke:none;stroke-width:4;stroke-linecap:round;stroke-linejoin:miter;stroke-miterlimit:4;stroke-dasharray:none;stroke-opacity:1" />
    <path
       id="path4459"
       d="m 292.29409,136.58284 c -0.0481,1.8085 0.36741,3.59071 0.89443,5.30902 0.15019,1.11021 -1.35753,1.74583 -2.16333,1.06347 -0.88011,-0.80769 -0.91381,-2.11579 -1.09912,-3.21919 -0.2084,-1.97624 -0.35825,-4.20253 0.90173,-5.88639 0.99439,-1.35419 2.60734,-2.37899 4.31545,-2.38898 0.98992,0.032 1.89535,0.93563 1.69325,1.95232 -0.21409,1.46972 -1.43837,2.47748 -2.23971,3.64064 -0.30389,0.59269 -1.3119,1.25879 -1.24552,1.82274 1.48909,0.1087 2.99245,-0.13011 4.45275,-0.42403 1.14773,-0.21359 2.26116,-0.61426 3.39997,-0.83243 1.13882,0.10859 1.30753,1.96728 0.11051,2.15161 -1.4344,0.53435 -2.9736,0.69636 -4.46582,1.00246 -1.5415,0.22495 -3.13475,0.51244 -4.6834,0.23729 -1.183,-0.29932 -1.82439,-1.73358 -1.10835,-2.76483 0.72442,-1.43546 2.13304,-2.3958 2.858,-3.82162 -0.0725,-0.51839 1.095,-1.18419 0.64419,-0.39217 -0.56208,0.48672 -1.46134,0.33585 -1.93145,0.98477 -1.00735,1.31483 -0.69352,3.06195 -0.52467,4.58391 0.27019,0.69581 0.61861,1.57313 -0.32468,1.85299 -0.73391,0.82597 -1.40425,-0.0978 -1.28178,-0.917 -0.25733,-1.3815 -0.46554,-2.77466 -0.60738,-4.17341 0.0384,-1.19288 2.00288,-1.47586 2.32026,-0.28873 0.0612,0.16141 0.0908,0.33496 0.0847,0.50756 z"
       style="opacity:1;fill:#212121;fill-opacity:1;stroke:none;stroke-width:4;stroke-linecap:round;stroke-linejoin:miter;stroke-miterlimit:4;stroke-dasharray:none;stroke-opacity:1" />
    <path
       id="path4561"
       d="m 305.7519,135.56386 c -1.12116,-0.14824 -2.41081,0.49272 -2.70678,1.63915 -0.27712,1.14597 0.7477,2.25702 1.85886,2.37131 1.10128,0.25353 2.33232,0.35017 3.35987,-0.20907 0.50217,-0.471 1.30359,-0.8446 1.95701,-0.4523 0.79563,0.48241 0.59832,1.80555 -0.21084,2.1707 -1.69517,1.04857 -3.82484,1.04179 -5.70144,0.55365 -1.2531,-0.31414 -2.47838,-1.0286 -3.08814,-2.20819 -0.75605,-1.41565 -0.51083,-3.24561 0.50237,-4.472 0.66499,-0.8558 1.66482,-1.44731 2.74378,-1.57643 0.72511,-0.22243 1.63419,-0.39647 2.25721,0.1599 0.72825,0.69746 0.0628,2.20728 -0.9719,2.02328 z"
       style="opacity:1;fill:#212121;fill-opacity:1;stroke:none;stroke-width:4;stroke-linecap:round;stroke-linejoin:miter;stroke-miterlimit:4;stroke-dasharray:none;stroke-opacity:1" />
    <path
       id="path4563"
       d="m 314.36867,136.23787 c -1.26849,-0.43793 -2.89539,0.54994 -2.79395,1.9652 0.18118,1.07927 1.45518,1.43902 2.40483,1.40798 0.86518,-0.0443 1.98025,-0.42979 2.0598,-1.44138 0.0978,-1.0988 -0.65005,-2.0445 -1.48309,-2.66757 -0.73282,-0.61216 -0.24746,-1.91229 0.68228,-1.975 0.94665,-0.019 1.49038,0.90889 2.02977,1.54807 1.04443,1.42372 1.49704,3.54908 0.36512,5.0561 -1.60214,2.03447 -4.89754,2.23386 -6.9005,0.68726 -1.27698,-0.92948 -1.70657,-2.72671 -1.0856,-4.16176 0.54071,-1.55033 2.04033,-2.60853 3.65021,-2.76884 0.8078,-0.0499 1.95748,-0.24987 2.37695,0.65218 0.45543,0.84743 -0.37401,1.90863 -1.30582,1.69776 z"
       style="opacity:1;fill:#212121;fill-opacity:1;stroke:none;stroke-width:4;stroke-linecap:round;stroke-linejoin:miter;stroke-miterlimit:4;stroke-dasharray:none;stroke-opacity:1" />
    <path
       id="path4565"
       d="m 246.41285,144.14448 c -2.01278,-0.98895 -4.64407,-1.12639 -6.52597,0.22282 -0.87283,0.58505 -1.37531,1.87481 -0.59544,2.73611 0.96405,1.25301 2.40097,2.01891 3.68159,2.90122 2.9059,1.87922 6.0339,3.66553 8.11308,6.51061 1.144,1.69929 1.1806,4.15779 -0.25444,5.70667 -1.90557,2.17232 -4.99411,3.10235 -7.82077,2.7512 -2.83485,-0.38041 -5.64069,-1.81199 -7.29253,-4.19601 -0.51814,-0.82243 -0.93662,-2.08478 -0.20925,-2.90233 1.07185,-0.74481 2.25137,0.52657 2.05568,1.62118 0.55855,1.3537 1.91843,2.17469 3.18974,2.77798 2.52891,1.16231 5.75487,1.02402 7.91626,-0.8439 0.95777,-0.78073 1.54775,-2.14898 1.00277,-3.33888 -0.74508,-1.96624 -2.60748,-3.14344 -4.16577,-4.41831 -2.66574,-1.92739 -5.97454,-3.00257 -8.17769,-5.53423 -0.92624,-1.19852 -0.91111,-2.94582 -0.0311,-4.16588 1.41768,-2.20471 4.25485,-2.92113 6.73375,-2.67721 1.25713,0.1047 2.5731,0.27886 3.69531,0.86964 0.9392,0.86673 -0.12554,2.59519 -1.31522,1.97932 z"
       style="opacity:1;fill:#212121;fill-opacity:1;stroke:none;stroke-width:4;stroke-linecap:round;stroke-linejoin:miter;stroke-miterlimit:4;stroke-dasharray:none;stroke-opacity:1" />
    <path
       id="path4573"
       d="m 275.22356,158.48561 c -0.24555,1.07477 0.56503,2.96649 -1.11673,3.15862 -1.58668,0.11468 -1.47662,-1.70949 -1.59886,-2.78572 -0.34376,-1.27348 -0.0607,-3.14567 1.49624,-3.39081 1.63616,-0.21936 2.91215,1.10099 3.95928,2.17044 0.50488,0.62517 2.07952,2.21196 2.13014,0.5148 -0.13882,-1.2416 -0.89379,-2.39459 -0.80017,-3.65293 0.33611,-1.35704 2.27922,-1.07017 2.33272,0.30033 0.19643,1.24224 0.51599,2.4607 0.70403,3.70462 0.19756,1.29248 -0.17341,3.07497 -1.66265,3.37962 -1.71671,0.22612 -2.86653,-1.29617 -3.94342,-2.37734 -0.51256,-0.37863 -1.51046,-1.78926 -1.967,-0.84311 0.0324,0.91324 1.04263,2.09337 0.0251,2.81848 -0.98418,0.6902 -2.26705,-0.36328 -1.99312,-1.47424 0.0661,-0.93787 -0.2412,-2.24421 0.82311,-2.74165 0.74938,-0.31793 1.77827,0.37621 1.61137,1.21889 z"
       style="opacity:1;fill:#212121;fill-opacity:1;stroke:none;stroke-width:4;stroke-linecap:round;stroke-linejoin:miter;stroke-miterlimit:4;stroke-dasharray:none;stroke-opacity:1" />
    <path
       d="m 315.69709,155.78687 c 0.36139,1.1709 0.56655,2.3767 0.77089,3.58191 0.0808,0.58833 0.0424,0.30947 0.11525,0.8366 0.14368,1.67682 -2.22769,1.88002 -2.37138,0.20321 l 0,0 c -0.0125,-0.4673 -0.001,-0.22133 -0.0362,-0.73776 -0.0905,-1.00204 -0.23988,-2.02501 -0.69303,-2.93488 -0.67111,-1.5659 1.54342,-2.51498 2.21452,-0.94908 z"
       id="path4585"
       style="opacity:1;fill:#212121;fill-opacity:1;stroke:none;stroke-width:4;stroke-linecap:round;stroke-linejoin:miter;stroke-miterlimit:4;stroke-dasharray:none;stroke-opacity:1" />
    <path
       id="path4599"
       d="m 332.01088,156.15434 c 0.35271,2.06844 0.20966,4.21178 -0.35876,6.22874 -0.78761,0.21812 -1.76433,0.0472 -2.27074,-0.6397 -0.19804,-0.45886 0.034,-0.96451 0.0975,-1.43075 0.2036,-0.82589 0.41705,-1.65278 0.50611,-2.49993 0.30373,-1.45771 0.68516,-3.01071 1.78053,-4.09249 0.84089,-0.7641 2.2201,-0.54202 2.98196,0.22661 1.14903,1.10816 1.50841,2.717 2.151,4.12238 0.2583,0.58297 0.60408,1.12478 1.01923,1.60745 0.50653,0.81368 -0.42608,2.03092 -1.34232,1.69082 -0.82571,-0.33407 -1.20884,-1.21746 -1.53425,-1.98433 -0.51663,-1.26502 -0.88013,-2.63527 -1.75325,-3.71514 -0.43648,-0.0817 -0.58654,0.68792 -0.75553,1.01324 -0.19541,0.70762 -0.35632,1.42722 -0.47355,2.15173 -0.11891,0.82036 -0.18877,1.64711 -0.3157,2.46638 -0.72207,0.36806 -1.5049,-0.0324 -2.23709,-0.14404 0.63251,-1.5018 0.55147,-3.20639 0.1232,-4.75061 -0.0836,-0.70981 0.67231,-1.22073 1.32104,-1.18734 0.53437,8.2e-4 0.97536,0.41958 1.06064,0.93698 z"
       style="opacity:1;fill:#212121;fill-opacity:1;stroke:none;stroke-width:4;stroke-linecap:round;stroke-linejoin:miter;stroke-miterlimit:4;stroke-dasharray:none;stroke-opacity:1" />
    <path
       d="m 331.02579,158.16032 c 1.48952,-0.2254 2.97739,-0.45664 4.47196,-0.64835 0.95444,-0.0951 0.48938,-0.0511 1.39514,-0.13258 1.58616,-0.10392 1.73313,2.13925 0.14696,2.24317 l 0,0 c -0.8477,0.0335 -0.41354,0.0101 -1.30237,0.0719 -1.37192,0.12384 -2.7481,0.31 -4.04819,0.78811 -1.64208,0.46916 -2.30558,-1.85308 -0.6635,-2.32225 z"
       id="path4601"
       style="opacity:1;fill:#212121;fill-opacity:1;stroke:none;stroke-width:4;stroke-linecap:round;stroke-linejoin:miter;stroke-miterlimit:4;stroke-dasharray:none;stroke-opacity:1" />
    <path
       d="m 352.73278,155.8781 c 0.0179,0.87011 0.18501,1.72972 0.36006,2.57981 0.019,0.0861 0.0381,0.17217 0.057,0.25824 0.24725,1.69497 -2.1498,2.04463 -2.39705,0.34967 l 0,0 c -0.006,-0.086 -0.0122,-0.17204 -0.0182,-0.25806 -0.0842,-0.93008 -0.23855,-1.85205 -0.41161,-2.76922 -0.11345,-1.70402 2.2964,-1.86445 2.40984,-0.16043 z"
       id="path4605"
       style="opacity:1;fill:#212121;fill-opacity:1;stroke:none;stroke-width:4;stroke-linecap:round;stroke-linejoin:miter;stroke-miterlimit:4;stroke-dasharray:none;stroke-opacity:1" />
    <path
       id="path4667"
       d="m 341.26621,157.69035 c 0.19076,1.16677 0.4814,2.31576 0.83885,3.44219 -0.43234,-0.67603 -1.05908,-0.0827 -1.576,0.12765 -0.85768,0.41797 -0.45229,-0.92371 -0.59004,-1.37818 -0.10227,-2.33373 0.19719,-4.80238 1.55176,-6.77171 0.49246,-0.72378 0.98307,-1.52192 1.75711,-1.97212 0.78533,-0.4258 1.90352,-0.24679 2.35618,0.57577 0.52286,0.80912 0.74293,1.79958 0.73789,2.75378 -0.11805,1.55358 -1.18784,2.78482 -2.15952,3.91035 -0.10861,0.15158 -0.27258,0.69815 -0.11839,0.25168 0.66645,0.24631 1.32859,0.51727 2.04335,0.58272 1.86588,0.31442 3.76331,0.12739 5.64157,0.14829 0.94686,0.15851 1.26027,1.64356 0.37874,2.10384 -0.73527,0.3754 -1.57528,0.0964 -2.35956,0.16618 -2.27474,-0.0424 -4.6295,-0.0837 -6.76326,-0.96435 -0.8345,-0.36034 -1.56201,-1.21077 -1.37489,-2.17092 0.24632,-1.60314 1.99107,-2.40147 2.36141,-3.9467 0.15051,-0.49684 -0.56729,-1.42325 0.36658,-1.33651 -0.44487,0.31471 -0.87467,0.91337 -1.21468,1.42309 -0.99677,1.49539 -1.0913,3.3826 -0.90944,5.11752 -0.003,0.83545 0.42986,1.71614 0.14833,2.52015 -0.5049,0.41499 -1.32727,0.92041 -1.9842,0.64539 -0.73667,-0.6278 -0.66981,-1.68566 -0.88738,-2.55003 -0.11693,-0.8067 -0.45218,-1.5585 -0.61107,-2.35272 -0.16462,-0.92244 0.99247,-1.63501 1.77399,-1.16279 0.31497,0.16646 0.51036,0.50138 0.59267,0.83743 z"
       style="opacity:1;fill:#212121;fill-opacity:1;stroke:none;stroke-width:4;stroke-linecap:round;stroke-linejoin:miter;stroke-miterlimit:4;stroke-dasharray:none;stroke-opacity:1" />
    <path
       id="path4669"
       d="m 258.20556,156.12949 c -1.17973,-0.30388 -2.53888,-0.21746 -3.54294,0.52541 -0.45087,0.40438 -0.70511,1.21593 -0.20255,1.68101 0.78789,0.77368 1.97082,0.80919 3.0091,0.77711 1.13062,-0.0756 2.28927,-0.35626 3.22726,-1.01451 0.41332,-0.25655 0.46699,-0.87597 1.0028,-0.96724 0.75082,-0.23928 1.66173,0.4147 1.55316,1.22566 -0.10987,0.89328 -0.91377,1.50035 -1.6598,1.88511 -1.32192,0.6191 -2.78016,0.90422 -4.22697,1.03232 -1.21161,0.0836 -2.47756,-0.0406 -3.55463,-0.64166 -0.91077,-0.45374 -1.67837,-1.27646 -1.85559,-2.30397 -0.30316,-1.51017 0.52725,-3.12591 1.88422,-3.82914 1.4166,-0.77516 3.1014,-0.87645 4.67868,-0.72634 0.48718,0.0163 0.98253,0.27067 1.15507,0.74884 0.31708,0.67456 -0.15286,1.54644 -0.89662,1.64143 -0.18948,0.0336 -0.38737,0.0238 -0.57119,-0.034 z"
       style="opacity:1;fill:#212121;fill-opacity:1;stroke:none;stroke-width:4;stroke-linecap:round;stroke-linejoin:miter;stroke-miterlimit:4;stroke-dasharray:none;stroke-opacity:1" />
    <path
       id="path4671"
       d="m 263.86248,156.86284 c 0.57787,1.30256 1.06114,2.67882 1.17009,4.10782 0.007,0.59708 -0.28135,1.35806 -0.95617,1.43261 -0.52592,0.0543 -1.38555,0.0187 -1.44255,-0.66646 -0.17146,-1.67406 0.37752,-3.30821 0.8699,-4.88345 0.43697,-1.28536 1.01852,-2.62267 2.12944,-3.46521 0.93888,-0.61582 2.34345,-0.42112 2.99521,0.52329 1.00848,1.25296 1.26833,2.88697 1.82522,4.35485 0.20768,0.52381 0.45325,1.12979 0.98615,1.39059 0.49171,0.0236 1.06749,0.0866 1.3137,0.59084 0.3978,0.67379 0.0405,1.72826 -0.78299,1.84771 -0.98214,0.18226 -1.90793,-0.43832 -2.55457,-1.11838 -1.08516,-1.24956 -1.24818,-2.96769 -1.90281,-4.43437 -0.20756,-0.33273 -0.34064,-1.02008 -0.69738,-1.07096 -0.6539,0.37882 -0.86994,1.16298 -1.13636,1.82077 -0.42492,1.17166 -0.76515,2.40738 -0.69814,3.66517 -0.40182,-0.77727 -0.93899,0.26476 -1.44451,0.39082 -0.29752,0.10194 -1.00591,0.65781 -0.81979,0.0143 0.002,-0.96572 -0.2207,-1.94079 -0.6381,-2.80986 -0.33017,-0.49118 -0.7074,-1.14019 -0.35991,-1.72114 0.32823,-0.63644 1.25875,-0.87966 1.80787,-0.37628 0.13742,0.11175 0.25208,0.25122 0.3357,0.40732 z"
       style="opacity:1;fill:#212121;fill-opacity:1;stroke:none;stroke-width:4;stroke-linecap:round;stroke-linejoin:miter;stroke-miterlimit:4;stroke-dasharray:none;stroke-opacity:1" />
    <path
       d="m 264.01934,157.55009 c 1.48287,0.15522 2.97815,0.12148 4.46619,0.0809 0.71741,-0.0359 0.38058,-0.0156 1.01061,-0.0584 1.65488,0 1.65488,2.34034 0,2.34034 l 0,0 c -0.63003,-0.0428 -0.2932,-0.0226 -1.01061,-0.0584 -1.48804,-0.0406 -2.98332,-0.0743 -4.46619,0.0809 -1.68661,0 -1.68661,-2.38523 0,-2.38523 z"
       id="path4673"
       style="opacity:1;fill:#212121;fill-opacity:1;stroke:none;stroke-width:4;stroke-linecap:round;stroke-linejoin:miter;stroke-miterlimit:4;stroke-dasharray:none;stroke-opacity:1" />
    <path
       id="path4671-0"
       d="m 295.18844,157.03018 c 0.68084,1.50909 1.1586,3.12173 1.29694,4.77571 -0.45822,0.59148 -1.33872,0.75487 -2.03052,0.54257 -0.69793,-0.196 -0.51971,-1.05396 -0.52196,-1.60424 0.10926,-1.014 0.37542,-2.00642 0.6633,-2.98189 0.48102,-1.55401 1.04855,-3.23995 2.42382,-4.23472 1.10951,-0.75085 2.74291,-0.14987 3.27993,1.02872 1.001,1.57113 1.03854,3.57149 2.14917,5.08645 0.65619,0.17249 1.48567,0.35019 1.77522,1.04553 0.20246,0.71238 -0.33113,1.57311 -1.10131,1.6015 -1.04097,0.0773 -1.98271,-0.60622 -2.58595,-1.40054 -1.14306,-1.56463 -1.15882,-3.65295 -2.27247,-5.23137 -0.38684,-0.0779 -0.75039,0.68928 -0.96789,1.05254 -0.38276,0.83698 -0.6232,1.73432 -0.84025,2.62591 -0.10773,0.56754 -0.11982,1.14882 -0.23375,1.71513 -0.43757,-0.37725 -0.91799,0.16293 -1.26276,0.4127 -0.26149,0.29919 -1.0942,0.55365 -0.9148,-0.0992 -0.0112,-1.22581 -0.43948,-2.41479 -1.08525,-3.44466 -0.38726,-0.95947 0.91464,-2.00466 1.76211,-1.39928 0.18881,0.13505 0.35913,0.30082 0.46642,0.50916 z"
       style="opacity:1;fill:#212121;fill-opacity:1;stroke:none;stroke-width:4;stroke-linecap:round;stroke-linejoin:miter;stroke-miterlimit:4;stroke-dasharray:none;stroke-opacity:1" />
    <path
       d="m 295.28913,158.39147 c 1.48287,0.15522 2.97815,0.12148 4.46619,0.0809 0.71741,-0.0359 0.38058,-0.0156 1.01061,-0.0584 1.65488,0 1.65488,2.34034 0,2.34034 l 0,0 c -0.63003,-0.0428 -0.2932,-0.0226 -1.01061,-0.0584 -1.48804,-0.0406 -2.98332,-0.0743 -4.46619,0.0809 -1.68661,0 -1.68661,-2.38523 0,-2.38523 z"
       id="path4673-6"
       style="opacity:1;fill:#212121;fill-opacity:1;stroke:none;stroke-width:4;stroke-linecap:round;stroke-linejoin:miter;stroke-miterlimit:4;stroke-dasharray:none;stroke-opacity:1" />
    <path
       id="path4726"
       d="m 305.1457,153.74062 c 2.21847,0.17498 4.52612,0.28857 6.55362,1.30303 0.99574,0.54461 1.24645,1.92287 0.7543,2.89075 -0.72589,1.4706 -2.04277,2.50088 -3.12069,3.69645 -0.65763,0.53487 -1.13137,1.41718 -2.04139,1.54781 -0.94617,0.17135 -1.68646,-1.08373 -1.12081,-1.84288 0.69946,-0.72201 1.58245,-1.24624 2.26637,-1.98893 0.69332,-0.67556 1.33218,-1.4114 1.86419,-2.22148 0.22146,-0.36833 -0.5994,-0.4491 -0.86186,-0.57531 -1.4262,-0.48305 -2.95747,-0.57544 -4.44842,-0.42817 -1.00594,-3.2e-4 -1.47183,-1.49511 -0.68931,-2.09805 0.2424,-0.17977 0.53839,-0.29837 0.844,-0.28323 z"
       style="opacity:1;fill:#212121;fill-opacity:1;stroke:none;stroke-width:4;stroke-linecap:round;stroke-linejoin:miter;stroke-miterlimit:4;stroke-dasharray:none;stroke-opacity:1" />
    <path
       d="m 305.43791,156.68559 c 0.29594,1.00074 0.61558,2.01309 1.07486,2.95292 0.0568,0.12232 0.11355,0.24464 0.17032,0.36696 0.6564,1.53341 -1.51218,2.4617 -2.16858,0.92828 l 0,0 c -0.048,-0.12253 -0.0961,-0.24506 -0.14412,-0.36759 -0.39497,-1.00172 -0.69885,-2.0393 -1.15664,-3.01625 -0.61117,-1.57272 1.613,-2.43704 2.22416,-0.86432 z"
       id="path4728"
       style="opacity:1;fill:#212121;fill-opacity:1;stroke:none;stroke-width:4;stroke-linecap:round;stroke-linejoin:miter;stroke-miterlimit:4;stroke-dasharray:none;stroke-opacity:1" />
    <path
       id="path4573-7"
       d="m 285.73914,158.18272 c -0.24555,1.07477 0.56503,2.96649 -1.11673,3.15862 -1.58668,0.11468 -1.47662,-1.70949 -1.59886,-2.78572 -0.34376,-1.27348 -0.0607,-3.14567 1.49624,-3.39081 1.63616,-0.21936 2.91215,1.10099 3.95928,2.17044 0.50488,0.62517 2.07952,2.21196 2.13014,0.5148 -0.13882,-1.2416 -0.89379,-2.39459 -0.80017,-3.65293 0.33611,-1.35704 2.27922,-1.07017 2.33272,0.30033 0.19643,1.24224 0.51599,2.4607 0.70403,3.70462 0.19756,1.29248 -0.17341,3.07497 -1.66265,3.37962 -1.71671,0.22612 -2.86653,-1.29617 -3.94342,-2.37734 -0.51256,-0.37863 -1.51046,-1.78926 -1.967,-0.84311 0.0324,0.91324 1.04263,2.09337 0.0251,2.81848 -0.98418,0.6902 -2.26705,-0.36328 -1.99312,-1.47424 0.0661,-0.93787 -0.2412,-2.24421 0.82311,-2.74165 0.74938,-0.31793 1.77827,0.37621 1.61137,1.21889 z"
       style="opacity:1;fill:#212121;fill-opacity:1;stroke:none;stroke-width:4;stroke-linecap:round;stroke-linejoin:miter;stroke-miterlimit:4;stroke-dasharray:none;stroke-opacity:1" />
    <path
       id="path4573-4"
       d="m 320.70789,158.53349 c -0.24555,1.07477 0.56503,2.96649 -1.11673,3.15862 -1.58668,0.11468 -1.47662,-1.70949 -1.59886,-2.78572 -0.34376,-1.27348 -0.0607,-3.14567 1.49624,-3.39081 1.63616,-0.21936 2.91215,1.10099 3.95928,2.17044 0.50488,0.62517 2.07952,2.21196 2.13014,0.5148 -0.13882,-1.2416 -0.89379,-2.39459 -0.80017,-3.65293 0.33611,-1.35704 2.27922,-1.07017 2.33272,0.30033 0.19643,1.24224 0.51599,2.4607 0.70403,3.70462 0.19756,1.29248 -0.17341,3.07497 -1.66265,3.37962 -1.71671,0.22612 -2.86653,-1.29617 -3.94342,-2.37734 -0.51256,-0.37863 -1.51046,-1.78926 -1.967,-0.84311 0.0324,0.91324 1.04263,2.09337 0.0251,2.81848 -0.98418,0.6902 -2.26705,-0.36328 -1.99312,-1.47424 0.0661,-0.93787 -0.2412,-2.24421 0.82311,-2.74165 0.74938,-0.31793 1.77827,0.37621 1.61137,1.21889 z"
       style="opacity:1;fill:#212121;fill-opacity:1;stroke:none;stroke-width:4;stroke-linecap:round;stroke-linejoin:miter;stroke-miterlimit:4;stroke-dasharray:none;stroke-opacity:1" />
  </g>
</svg>
